<svg width="29" height="30" viewBox="0 0 29 30" fill="none" xmlns="http://www.w3.org/2000/svg">
<g id="home 2" clip-path="url(#clip0_4_126)">
<path id="Vector" d="M27.7841 13.1308C27.7835 13.1301 27.7828 13.1295 27.7822 13.1288L16.1342 1.48127C15.6377 0.984562 14.9776 0.710938 14.2755 0.710938C13.5733 0.710938 12.9132 0.984344 12.4165 1.48105L0.774664 13.1227C0.770743 13.1266 0.766821 13.1308 0.7629 13.1347C-0.256655 14.1601 -0.254912 15.8239 0.76791 16.8467C1.23521 17.3142 1.85239 17.585 2.51226 17.6133C2.53906 17.6159 2.56607 17.6172 2.59331 17.6172H3.05755V26.1891C3.05755 27.8853 4.43765 29.2654 6.1343 29.2654H10.6914C11.1532 29.2654 11.5279 28.8909 11.5279 28.4289V21.7085C11.5279 20.9345 12.1575 20.3049 12.9315 20.3049H15.6194C16.3935 20.3049 17.0231 20.9345 17.0231 21.7085V28.4289C17.0231 28.8909 17.3975 29.2654 17.8596 29.2654H22.4167C24.1133 29.2654 25.4934 27.8853 25.4934 26.1891V17.6172H25.9239C26.6258 17.6172 27.2859 17.3438 27.7828 16.8471C28.8068 15.8226 28.8072 14.156 27.7841 13.1308Z" fill="url(#paint0_linear_4_126)"/>
</g>
<defs>
<linearGradient id="paint0_linear_4_126" x1="14.2753" y1="0.710937" x2="14.2753" y2="29.2654" gradientUnits="userSpaceOnUse">
<stop stop-color="#F04646"/>
<stop offset="1" stop-color="#8F0000"/>
</linearGradient>
<clipPath id="clip0_4_126">
<rect width="28.5545" height="28.5545" fill="white" transform="translate(0 0.710938)"/>
</clipPath>
</defs>
</svg>
