<svg width="30" height="31" viewBox="0 0 30 31" fill="none" xmlns="http://www.w3.org/2000/svg">
<g id="credit-card 1" clip-path="url(#clip0_4_77)">
<g id="Group">
<path id="Vector" d="M26.2254 9.11093V8.70469C26.2254 6.83722 24.7061 5.31787 22.8385 5.31787H3.38681C1.51929 5.31793 0 6.83722 0 8.70469V9.11093H26.2254Z" fill="#B1B1B1"/>
<path id="Vector_2" d="M15.4938 20.0054C15.4938 18.2486 16.0588 16.5788 17.102 15.2026H0V19.927C0 21.7944 1.51929 23.3138 3.38681 23.3138H16.2088C15.7407 22.2885 15.4938 21.166 15.4938 20.0054ZM13.1127 18.9789H10.1897V17.2388H13.1127V18.9789ZM3.90105 17.2388H8.44963V18.9789H3.90105V17.2388Z" fill="#B1B1B1"/>
<path id="Vector_3" d="M18.9084 13.4626C20.2354 12.5342 21.8119 12.0339 23.4653 12.0339C24.4223 12.0339 25.3533 12.202 26.2254 12.5231V10.851H0V13.4626H18.9084Z" fill="#B1B1B1"/>
<path id="Vector_4" d="M29.6967 20.0054C29.6967 16.5639 26.9068 13.774 23.4653 13.774C20.0238 13.774 17.2339 16.5639 17.2339 20.0054C17.2339 23.4469 20.0237 26.2368 23.4653 26.2368C26.9068 26.2368 29.6967 23.4469 29.6967 20.0054ZM24.3053 23.3344V24.0425H23.4353V24.0426V24.0425H22.5652V23.3396C22.0392 23.1615 21.6089 22.8481 21.1886 22.5408L22.2158 21.1363C22.7804 21.5492 23.0694 21.7477 23.4653 21.7477C23.6892 21.7477 23.8705 21.6412 23.9384 21.4697C24.0207 21.262 23.9044 21.0707 23.6273 20.9579C23.6273 20.9579 22.3837 20.5432 21.8087 19.9569C21.3263 19.4652 21.1729 18.7721 21.3265 18.1128C21.4811 17.449 21.9293 16.9299 22.5652 16.6707V15.9682H24.3053V16.6416C24.7472 16.7643 25.1213 16.9457 25.3363 17.0624L24.5061 18.5916C23.9557 18.2929 23.4494 18.2032 23.2523 18.2706C23.061 18.3359 23.032 18.4606 23.021 18.5076C23.0055 18.5741 22.9972 18.6762 23.1036 18.7948C23.206 18.9088 24.2834 19.3464 24.2834 19.3464C25.4458 19.8196 25.9929 21.008 25.556 22.1106C25.3291 22.6838 24.8723 23.1178 24.3053 23.3344Z" fill="#B1B1B1"/>
</g>
</g>
<defs>
<clipPath id="clip0_4_77">
<rect width="29.6967" height="29.6967" fill="white" transform="translate(0 0.928955)"/>
</clipPath>
</defs>
</svg>
