<svg width="29" height="29" viewBox="0 0 29 29" fill="none" xmlns="http://www.w3.org/2000/svg">
<g id="economic-investment 1" clip-path="url(#clip0_4_83)">
<g id="Group">
<g id="Layer 1 1">
<g id="Group_2">
<path id="Vector" d="M4.4782 12.0558H1.29832C0.581418 12.0558 0 12.6372 0 13.3541V27.6314C0 28.3476 0.581418 28.9291 1.29832 28.9291H4.4782C5.1951 28.9291 5.77591 28.3476 5.77591 27.6314V13.3541C5.77591 12.6372 5.1951 12.0558 4.4782 12.0558Z" fill="#B1B1B1"/>
<path id="Vector_2" d="M12.0715 15.9489H8.89158C8.17407 15.9489 7.59326 16.5303 7.59326 17.2472V27.6301C7.59326 28.3476 8.17407 28.9284 8.89158 28.9284H12.0715C12.7884 28.9284 13.3692 28.347 13.3692 27.6301V17.2472C13.3692 16.5303 12.7884 15.9489 12.0715 15.9489Z" fill="#B1B1B1"/>
<path id="Vector_3" d="M19.6631 15.9489H16.4833C15.7664 15.9489 15.1855 16.5303 15.1855 17.2472V27.6301C15.1855 28.3476 15.7664 28.9284 16.4833 28.9284H19.6631C20.3806 28.9284 20.9615 28.347 20.9615 27.6301V17.2472C20.9615 16.5303 20.3806 15.9489 19.6631 15.9489Z" fill="#B1B1B1"/>
<path id="Vector_4" d="M27.2564 12.0558H24.0765C23.3596 12.0558 22.7788 12.6372 22.7788 13.3541V27.6314C22.7788 28.3483 23.3596 28.9291 24.0765 28.9291H27.2564C27.9733 28.9291 28.5547 28.347 28.5547 27.6314V13.3541C28.5547 12.6372 27.9733 12.0558 27.2564 12.0558Z" fill="#B1B1B1"/>
<path id="Vector_5" d="M14.6558 8.19348V10.5301C15.3629 10.4833 16.1084 10.1516 16.1084 9.37333C16.1084 8.57016 15.2913 8.33504 14.6558 8.19348Z" fill="#B1B1B1"/>
<path id="Vector_6" d="M12.6235 5.39697C12.6235 5.9875 13.0628 6.32894 13.948 6.50634V4.3927C13.1436 4.41639 12.6235 4.88906 12.6235 5.39697Z" fill="#B1B1B1"/>
<path id="Vector_7" d="M14.2773 0.374512C10.341 0.374512 7.13867 3.57748 7.13867 7.51314C7.13867 11.4476 10.341 14.6505 14.2773 14.6505C18.2136 14.6505 21.4159 11.4476 21.4159 7.51314C21.4159 3.57748 18.2136 0.374512 14.2773 0.374512ZM14.6558 11.735V12.4658C14.6558 12.6669 14.5015 12.8674 14.2998 12.8674C14.1005 12.8674 13.948 12.6669 13.948 12.4658V11.735C11.9534 11.6863 10.9613 10.4943 10.9613 9.56177C10.9613 9.09093 11.2463 8.81875 11.6922 8.81875C13.0142 8.81875 11.9863 10.4476 13.948 10.5296V8.06296C12.1983 7.74522 11.1387 6.97789 11.1387 5.66803C11.1387 4.06351 12.4729 3.23604 13.948 3.18986V2.56045C13.948 2.35935 14.1005 2.15886 14.2998 2.15886C14.5015 2.15886 14.6558 2.35935 14.6558 2.56045V3.18986C15.5756 3.21417 17.4645 3.79133 17.4645 4.9487C17.4645 5.40861 17.1206 5.67957 16.719 5.67957C15.9511 5.67957 15.962 4.41771 14.6558 4.39341V6.63585C16.2135 6.96696 17.5933 7.42687 17.5933 9.24463C17.5933 10.8255 16.4134 11.6274 14.6558 11.735Z" fill="#B1B1B1"/>
</g>
</g>
</g>
</g>
<defs>
<clipPath id="clip0_4_83">
<rect width="28.5545" height="28.5545" fill="white" transform="translate(0 0.374512)"/>
</clipPath>
</defs>
</svg>
