<svg width="29" height="29" viewBox="0 0 29 29" fill="none" xmlns="http://www.w3.org/2000/svg">
<g id="transfer 1" clip-path="url(#clip0_4_94)">
<g id="17-transfer">
<g id="Glyph">
<path id="Vector" d="M5.94873 26.4403C5.94948 27.0712 6.20042 27.676 6.64651 28.1221C7.0926 28.5682 7.69741 28.8191 8.32827 28.8199H20.226C20.8568 28.8191 21.4617 28.5682 21.9077 28.1221C22.3538 27.676 22.6048 27.0712 22.6055 26.4403V25.3993H5.94873V26.4403Z" fill="#B1B1B1"/>
<path id="Vector_2" d="M22.6055 2.64492C22.6048 2.01406 22.3538 1.40925 21.9077 0.963159C21.4617 0.51707 20.8568 0.266129 20.226 0.265381L8.32827 0.265381C7.69741 0.266129 7.0926 0.51707 6.64651 0.963159C6.20042 1.40925 5.94948 2.01406 5.94873 2.64492V3.83469H22.6055V2.64492Z" fill="#B1B1B1"/>
<path id="Vector_3" d="M28.2228 7.9186L24.6535 4.20056L22.937 5.84839L24.4303 7.40402H22.6055V9.78356H24.5586L22.9721 11.3041L24.6184 13.0221L28.1877 9.60153C28.3006 9.49336 28.391 9.36402 28.4539 9.22088C28.5167 9.07775 28.5508 8.92363 28.554 8.76734C28.5573 8.61104 28.5297 8.45564 28.4729 8.31001C28.4161 8.16438 28.3311 8.03137 28.2228 7.9186Z" fill="#B1B1B1"/>
<path id="Vector_4" d="M19.0362 7.40408H22.6055V5.02454H5.94873V19.3018H9.51804V21.6813H5.94873V24.0609H22.6055V9.78362H19.0362V7.40408ZM17.8464 12.1632H13.6822C13.5245 12.1632 13.3732 12.2258 13.2616 12.3374C13.15 12.449 13.0874 12.6003 13.0874 12.758C13.0874 12.9158 13.15 13.0671 13.2616 13.1787C13.3732 13.2903 13.5245 13.3529 13.6822 13.3529H14.872C15.6096 13.3522 16.3212 13.6256 16.8686 14.12C17.4161 14.6144 17.7602 15.2945 17.8344 16.0284C17.9085 16.7623 17.7073 17.4976 17.2698 18.0915C16.8323 18.6854 16.1898 19.0955 15.4669 19.2423V20.4916H13.0874V19.3018H10.7078V16.9222H14.872C15.0298 16.9222 15.1811 16.8596 15.2927 16.748C15.4042 16.6364 15.4669 16.4851 15.4669 16.3274C15.4669 16.1696 15.4042 16.0183 15.2927 15.9067C15.1811 15.7952 15.0298 15.7325 14.872 15.7325H13.6822C12.9446 15.7332 12.233 15.4599 11.6856 14.9654C11.1382 14.471 10.794 13.7909 10.7199 13.057C10.6458 12.3231 10.847 11.5878 11.2844 10.9939C11.7219 10.4 12.3645 9.98989 13.0874 9.84311V8.59385H15.4669V9.78362H17.8464V12.1632Z" fill="#B1B1B1"/>
<path id="Vector_5" d="M3.99566 19.3017L5.58222 17.7811L3.93587 16.0631L0.366561 19.4837C0.253695 19.5919 0.163251 19.7212 0.100399 19.8643C0.0375466 20.0075 0.00351824 20.1616 0.000258678 20.3179C-0.00300088 20.4742 0.0245723 20.6296 0.0814022 20.7752C0.138232 20.9209 0.223205 21.0539 0.331463 21.1666L3.90078 24.8847L5.61732 23.2368L4.12401 21.6812H5.94882V19.3017H3.99566Z" fill="#B1B1B1"/>
</g>
</g>
</g>
<defs>
<clipPath id="clip0_4_94">
<rect width="28.5545" height="28.5545" fill="white" transform="translate(0 0.265381)"/>
</clipPath>
</defs>
</svg>
