<svg width="29" height="30" viewBox="0 0 29 30" fill="none" xmlns="http://www.w3.org/2000/svg">
<g id="loan 1" clip-path="url(#clip0_4_102)">
<g id="Group">
<path id="Vector" d="M16.5528 18.1435C21.3442 18.1435 25.2423 14.2142 25.2423 9.38456C25.2423 4.55492 21.3442 0.62561 16.5528 0.62561C11.7614 0.62561 7.86328 4.55487 7.86328 9.38451C7.86328 14.2141 11.7614 18.1435 16.5528 18.1435ZM13.7606 12.1178C14.0133 11.7314 14.5315 11.6229 14.9179 11.8758C15.481 12.2441 15.6933 12.278 16.4362 12.2728C17.1614 12.268 17.5821 11.7275 17.6662 11.2273C17.7071 10.9841 17.7228 10.39 16.9865 10.1297C16.1228 9.82433 15.2389 9.47536 14.6241 8.99306C14.0092 8.51077 13.7276 7.67816 13.8893 6.82031C14.0646 5.89033 14.7133 5.15003 15.5823 4.88829C15.5902 4.88595 15.5979 4.88405 15.6058 4.88171V4.56479C15.6058 4.10306 15.9801 3.72873 16.4418 3.72873C16.9035 3.72873 17.2779 4.10306 17.2779 4.56479V4.82904C17.8457 4.96459 18.2423 5.22438 18.4033 5.34472C18.7731 5.62123 18.8488 6.14511 18.5724 6.51498C18.2959 6.88485 17.772 6.96055 17.4022 6.68398C17.2308 6.55589 16.7573 6.28055 16.0646 6.48929C15.6599 6.61124 15.5549 7.01054 15.5324 7.12999C15.4882 7.3647 15.5378 7.58469 15.656 7.67733C16.0822 8.01164 16.8495 8.30766 17.5437 8.55307C18.824 9.0056 19.5358 10.1917 19.3152 11.5045C19.2069 12.1487 18.8828 12.7463 18.4027 13.1875C18.0756 13.488 17.6949 13.7023 17.2779 13.8246V14.2042C17.2779 14.666 16.9035 15.0403 16.4418 15.0403C15.9801 15.0403 15.6058 14.666 15.6058 14.2042V13.908C15.0652 13.8424 14.6113 13.6734 14.0025 13.2751C13.6162 13.0223 13.5078 12.5041 13.7606 12.1178Z" fill="#B1B1B1"/>
<path id="Vector_2" d="M3.16914 20.9528H1.26282C0.80109 20.9528 0.426758 21.3271 0.426758 21.7888V28.343C0.426758 28.8047 0.80109 29.179 1.26282 29.179H3.1692V20.9528H3.16914Z" fill="#B1B1B1"/>
<path id="Vector_3" d="M27.8831 20.8943C26.3161 19.3273 23.7663 19.3272 22.1994 20.8943L19.6949 23.3988L18.6683 24.4253C18.2535 24.8402 17.6908 25.0732 17.1041 25.0732H12.1126C11.6618 25.0732 11.2738 24.7268 11.2526 24.2765C11.23 23.7957 11.6131 23.3988 12.0889 23.3988H17.1624C18.1825 23.3988 19.0673 22.6725 19.2427 21.6676C19.283 21.4369 19.304 21.1996 19.304 20.9575C19.304 20.4949 18.9293 20.1196 18.4667 20.1196H15.6867C14.7782 20.1196 13.9058 19.7075 12.982 19.271C12.0131 18.8134 11.0113 18.3401 9.83989 18.2622C8.81533 18.1939 7.78842 18.3061 6.78755 18.5951C5.71588 18.9046 4.94554 19.8567 4.85212 20.9559C4.84855 20.9557 4.84493 20.9556 4.84131 20.9554V29.1761L19.2453 29.1801C20.2357 29.1801 21.1668 28.7944 21.8672 28.094L27.883 22.0783C28.2101 21.7515 28.2101 21.2213 27.8831 20.8943Z" fill="#B1B1B1"/>
</g>
</g>
<defs>
<clipPath id="clip0_4_102">
<rect width="28.5545" height="28.5545" fill="white" transform="translate(0 0.62561)"/>
</clipPath>
</defs>
</svg>
