<svg width="29" height="30" viewBox="0 0 29 30" fill="none" xmlns="http://www.w3.org/2000/svg">
<g id="user 3 1" clip-path="url(#clip0_4_115)">
<path id="Vector" d="M14.0739 14.5747C15.9636 14.5747 17.5999 13.897 18.9369 12.5598C20.2738 11.2228 20.9516 9.58699 20.9516 7.69712C20.9516 5.8079 20.2738 4.17183 18.9366 2.83443C17.5995 1.49769 15.9634 0.819946 14.0739 0.819946C12.184 0.819946 10.5482 1.49769 9.21122 2.83465C7.87425 4.17161 7.19629 5.80768 7.19629 7.69712C7.19629 9.58699 7.87425 11.2231 9.21143 12.56C10.5486 13.8968 12.1847 14.5747 14.0739 14.5747Z" fill="#B1B1B1"/>
<path id="Vector_2" d="M26.1077 22.7768C26.0692 22.2204 25.9912 21.6135 25.8764 20.9726C25.7605 20.3268 25.6112 19.7164 25.4326 19.1585C25.2481 18.5818 24.9971 18.0124 24.6869 17.4667C24.3649 16.9002 23.9867 16.407 23.5623 16.0012C23.1185 15.5766 22.5752 15.2352 21.9469 14.9862C21.3208 14.7385 20.627 14.613 19.8847 14.613C19.5932 14.613 19.3113 14.7326 18.7669 15.0871C18.4319 15.3056 18.0399 15.5583 17.6025 15.8378C17.2284 16.0761 16.7217 16.2994 16.0958 16.5016C15.4852 16.6992 14.8652 16.7994 14.2532 16.7994C13.6413 16.7994 13.0215 16.6992 12.4102 16.5016C11.7849 16.2996 11.2782 16.0763 10.9046 15.838C10.4713 15.5611 10.0791 15.3084 9.73907 15.0868C9.1953 14.7324 8.91318 14.6128 8.6217 14.6128C7.87925 14.6128 7.18561 14.7385 6.55971 14.9864C5.93186 15.235 5.38831 15.5764 4.94411 16.0014C4.51995 16.4075 4.14154 16.9005 3.81999 17.4667C3.50998 18.0124 3.25901 18.5816 3.07427 19.1587C2.89585 19.7166 2.74662 20.3268 2.63072 20.9726C2.51591 21.6126 2.43792 22.2198 2.39936 22.7775C2.36146 23.3238 2.34229 23.8909 2.34229 24.4637C2.34229 25.9542 2.81612 27.1609 3.75049 28.0508C4.67332 28.929 5.89439 29.3745 7.37928 29.3745H21.1285C22.6133 29.3745 23.834 28.9292 24.757 28.0508C25.6916 27.1615 26.1654 25.9546 26.1654 24.4634C26.1652 23.8881 26.1458 23.3206 26.1077 22.7768Z" fill="#B1B1B1"/>
</g>
<defs>
<clipPath id="clip0_4_115">
<rect width="28.5545" height="28.5545" fill="white" transform="translate(0 0.819946)"/>
</clipPath>
</defs>
</svg>
