<svg width="29" height="29" viewBox="0 0 29 29" fill="none" xmlns="http://www.w3.org/2000/svg">
<g id="service 1" clip-path="url(#clip0_4_56)">
<g id="Group">
<g id="Group_2">
<path id="Vector" d="M28.3094 1.60836L27.1264 0.425299C26.8798 0.17857 26.506 0.110977 26.1889 0.254864L19.8347 3.05995C19.5846 3.17372 19.4066 3.40255 19.3576 3.67225C19.3089 3.94268 19.395 4.2193 19.5892 4.41344L24.3214 9.14561C24.5155 9.33975 24.7921 9.4258 25.0625 9.37723C25.3322 9.32821 25.5611 9.15024 25.6748 8.90011L28.4799 2.54586C28.6238 2.22869 28.5562 1.85497 28.3094 1.60836Z" fill="#B1B1B1"/>
</g>
</g>
<g id="Group_3">
<g id="Group_4">
<path id="Vector_2" d="M5.40417 18.5983L0.733953 23.2685C-0.244651 24.2471 -0.244651 25.8391 0.733953 26.8177L1.91695 28.0007C2.89556 28.9793 4.48752 28.9793 5.46607 28.0007L10.1363 23.3304L5.40417 18.5983ZM4.88277 25.0466C4.55579 25.3736 4.02658 25.3736 3.69966 25.0466C3.37278 24.7196 3.37278 24.1904 3.69966 23.8636L6.00381 21.5595C6.33079 21.2324 6.85994 21.2324 7.18681 21.5595C7.51379 21.8864 7.51379 22.4155 7.18681 22.7425L4.88277 25.0466Z" fill="#B1B1B1"/>
</g>
</g>
<g id="Group_5">
<g id="Group_6">
<path id="Vector_3" d="M13.6856 19.7814L8.95338 15.0492C8.30114 14.3969 7.2395 14.3969 6.58732 15.0492C5.93509 15.7014 5.93509 16.7631 6.58732 17.4152L11.3195 22.1474C11.9716 22.7996 13.0333 22.7996 13.6856 22.1474C14.3378 21.4953 14.3378 20.4336 13.6856 19.7814Z" fill="#B1B1B1"/>
</g>
</g>
<g id="Group_7">
<g id="Group_8">
<path id="Vector_4" d="M21.9552 9.14559L19.589 6.77948L13.0938 13.2746C12.4405 12.6213 11.3812 12.6213 10.7278 13.2746L10.1362 13.8662L14.8684 18.5983L15.46 18.0068C16.1133 17.3533 16.1133 16.2941 15.46 15.6407L21.9552 9.14559Z" fill="#B1B1B1"/>
</g>
</g>
<g id="Group_9">
<g id="Group_10">
<path id="Vector_5" d="M27.0865 20.1659C25.7284 18.8078 24.0954 18.5158 22.2216 18.8507L18.4184 15.0479L17.5102 15.9561C17.8092 17.0798 17.5185 18.3136 16.6426 19.1895L16.0522 19.7799L18.6696 22.397C18.4057 23.8738 18.4305 25.1263 19.3477 26.4849C20.4061 28.0532 22.2585 28.9447 24.1992 28.6775C24.52 28.6334 24.788 28.4109 24.8911 28.1039C24.9942 27.797 24.9147 27.458 24.6858 27.229L23.5353 26.0805V23.7147H25.9036L27.0477 24.8589C27.2771 25.0883 27.617 25.1673 27.9241 25.0633C28.2314 24.9594 28.4532 24.6902 28.4964 24.3686C28.7007 22.847 28.2029 21.2818 27.0865 20.1659Z" fill="#B1B1B1"/>
</g>
</g>
<g id="Group_11">
<g id="Group_12">
<path id="Vector_6" d="M9.87329 6.49913C10.2053 4.64493 9.93647 3.01376 8.55805 1.63433C7.62016 0.696498 6.36533 0.180176 5.02472 0.180176C4.79902 0.180176 4.57571 0.194899 4.35531 0.224067C4.03345 0.266787 3.76403 0.488865 3.65996 0.796439C3.55589 1.1039 3.63537 1.44388 3.86492 1.67343L5.02026 2.81728V5.19946H2.6426L1.49584 4.03664C1.2668 3.80759 0.927544 3.72834 0.620472 3.83169C0.313512 3.93503 0.0914901 4.20329 0.0473757 4.52424C-0.207495 6.38012 0.596659 8.26555 2.23737 9.37315C3.60107 10.2919 4.86114 10.3147 6.3269 10.0504L8.95486 12.6827L9.54541 12.0921C10.4213 11.2162 11.655 10.9256 12.7788 11.2245L13.6866 10.3167L9.87329 6.49913Z" fill="#B1B1B1"/>
</g>
</g>
</g>
<defs>
<clipPath id="clip0_4_56">
<rect width="28.5545" height="28.5545" fill="white" transform="translate(0 0.180176)"/>
</clipPath>
</defs>
</svg>
