<svg width="29" height="30" viewBox="0 0 29 30" fill="none" xmlns="http://www.w3.org/2000/svg">
<g id="settings solid 1" clip-path="url(#clip0_4_75)">
<path id="Vector" d="M25.9258 11.4872H25.3196C25.1227 10.8709 24.8742 10.2723 24.5766 9.69711L25.0059 9.26779C26.0468 8.22795 26.019 6.56152 25.0062 5.54985L23.7396 4.2833C22.7285 3.27089 21.0618 3.24156 20.0217 4.28291L19.592 4.71256C19.0169 4.41497 18.4182 4.16646 17.8019 3.96953V3.36325C17.8019 1.91383 16.6227 0.734619 15.1733 0.734619H13.3812C11.9318 0.734619 10.7526 1.91383 10.7526 3.36325V3.96953C10.1363 4.1664 9.53765 4.41492 8.96249 4.71256L8.53322 4.2833C7.49517 3.24401 5.82846 3.26839 4.81534 4.28296L3.54862 5.54957C2.53628 6.5608 2.507 8.22733 3.54829 9.26751L3.97794 9.69716C3.6803 10.2723 3.43184 10.8709 3.23491 11.4872H2.62869C1.17927 11.4872 0 12.6664 0 14.1158V15.9079C0 17.3574 1.17927 18.5366 2.62869 18.5366H3.23491C3.43184 19.1528 3.6803 19.7515 3.97794 20.3266L3.54862 20.756C2.50767 21.7958 2.53555 23.4622 3.54829 24.4739L4.81489 25.7404C5.82595 26.7528 7.49271 26.7822 8.53283 25.7408L8.96249 25.3112C9.53765 25.6088 10.1363 25.8573 10.7526 26.0542V26.6605C10.7526 28.1099 11.9318 29.2891 13.3812 29.2891H15.1733C16.6227 29.2891 17.802 28.1099 17.802 26.6605V26.0542C18.4182 25.8573 19.0169 25.6088 19.5921 25.3112L20.0213 25.7404C21.0594 26.7797 22.726 26.7554 23.7392 25.7408L25.0059 24.4741C26.0183 23.4629 26.0476 21.7964 25.0063 20.7562L24.5766 20.3265C24.8743 19.7514 25.1227 19.1528 25.3196 18.5365H25.9259C27.3753 18.5365 28.5546 17.3572 28.5546 15.9078V14.1157C28.5545 12.6664 27.3752 11.4872 25.9258 11.4872ZM14.2773 21.2247C10.8514 21.2247 8.06442 18.4376 8.06442 15.0119C8.06442 11.5861 10.8514 8.79904 14.2773 8.79904C17.7031 8.79904 20.4901 11.5861 20.4901 15.0119C20.4901 18.4376 17.7031 21.2247 14.2773 21.2247Z" fill="#B1B1B1"/>
</g>
<defs>
<clipPath id="clip0_4_75">
<rect width="28.5545" height="28.5545" fill="white" transform="translate(0 0.734619)"/>
</clipPath>
</defs>
</svg>
