<svg width="38" height="38" viewBox="0 0 38 38" fill="none" xmlns="http://www.w3.org/2000/svg">
<path id="Vector" d="M19.001 0V0.00209657L18.9989 0C8.50545 0 0 8.50814 0 19.0011C0 29.4946 8.50599 38 19.0011 38C29.4946 38 38 29.494 38 19.0011C38 8.50545 29.494 0 19.001 0ZM19.001 5.05905C19.4728 5.05695 19.8565 5.44063 19.8565 5.91448L19.8585 19.0014C19.8585 19.4752 19.4728 19.8589 19.001 19.8589H9.97549C9.50376 19.8589 9.12006 19.4753 9.12006 19.0014C9.12006 18.5276 9.50373 18.1439 9.97549 18.1439H18.1439V5.91464C18.1439 5.44081 18.5255 5.05921 18.9993 5.05921L19.001 5.05905Z" fill="white"/>
</svg>
