<svg width="274" height="38" viewBox="0 0 274 38" fill="none" xmlns="http://www.w3.org/2000/svg">
<path d="M19.001 0V0.00209657L18.9989 0C8.50545 0 0 8.50814 0 19.0011C0 29.4946 8.50599 38 19.0011 38C29.4946 38 38 29.494 38 19.0011C38 8.50545 29.494 0 19.001 0ZM19.001 5.05905C19.4728 5.05695 19.8565 5.44063 19.8565 5.91448L19.8585 19.0014C19.8585 19.4752 19.4728 19.8589 19.001 19.8589H9.97549C9.50376 19.8589 9.12006 19.4752 9.12006 19.0014C9.12006 18.5276 9.50373 18.1439 9.97549 18.1439H18.1439V5.91464C18.1439 5.44082 18.5255 5.05921 18.9993 5.05921L19.001 5.05905Z" fill="white"/>
<path d="M60.555 29.27C59.043 29.27 57.648 29.045 56.37 28.595C55.092 28.127 53.985 27.47 53.049 26.624C52.113 25.76 51.384 24.725 50.862 23.519C50.34 22.313 50.079 20.972 50.079 19.496C50.079 18.11 50.34 16.832 50.862 15.662C51.402 14.474 52.158 13.448 53.13 12.584C54.12 11.702 55.272 11.018 56.586 10.532C57.9 10.046 59.34 9.803 60.906 9.803C62.076 9.803 63.165 9.947 64.173 10.235C65.199 10.523 66.117 10.901 66.927 11.369C67.755 11.837 68.43 12.359 68.952 12.935L66.441 15.635C65.937 15.203 65.388 14.825 64.794 14.501C64.218 14.177 63.597 13.925 62.931 13.745C62.283 13.547 61.599 13.448 60.879 13.448C59.943 13.448 59.07 13.601 58.26 13.907C57.468 14.213 56.766 14.636 56.154 15.176C55.56 15.716 55.092 16.355 54.75 17.093C54.426 17.831 54.264 18.632 54.264 19.496C54.264 20.45 54.435 21.305 54.777 22.061C55.137 22.817 55.623 23.456 56.235 23.978C56.847 24.5 57.549 24.905 58.341 25.193C59.151 25.463 60.015 25.598 60.933 25.598C61.671 25.598 62.373 25.508 63.039 25.328C63.723 25.148 64.317 24.896 64.821 24.572C65.325 24.23 65.712 23.825 65.982 23.357C66.252 22.889 66.378 22.394 66.36 21.872V21.305L66.9 22.142H60.582V18.794H70.302C70.32 19.028 70.338 19.28 70.356 19.55C70.392 19.82 70.41 20.081 70.41 20.333C70.428 20.567 70.437 20.747 70.437 20.873C70.437 22.169 70.185 23.339 69.681 24.383C69.195 25.427 68.511 26.309 67.629 27.029C66.765 27.749 65.73 28.307 64.524 28.703C63.318 29.081 61.995 29.27 60.555 29.27ZM76.1973 29V10.1H84.6753C85.7193 10.1 86.6373 10.334 87.4293 10.802C88.2213 11.27 88.8423 11.918 89.2923 12.746C89.7603 13.556 89.9943 14.492 89.9943 15.554C89.9943 16.706 89.7603 17.732 89.2923 18.632C88.8243 19.514 88.1853 20.207 87.3753 20.711C86.5833 21.215 85.6563 21.467 84.5943 21.467H77.5473V29H76.1973ZM77.5473 20.117H84.7293C85.4853 20.117 86.1513 19.928 86.7273 19.55C87.3033 19.154 87.7443 18.614 88.0503 17.93C88.3743 17.228 88.5363 16.418 88.5363 15.5C88.5363 14.708 88.3743 14.006 88.0503 13.394C87.7443 12.782 87.3033 12.305 86.7273 11.963C86.1513 11.621 85.4853 11.45 84.7293 11.45H77.5473V20.117ZM96.1572 29V10.1H104.149C105.283 10.1 106.291 10.352 107.173 10.856C108.055 11.342 108.748 12.008 109.252 12.854C109.756 13.7 110.008 14.654 110.008 15.716C110.008 16.832 109.756 17.804 109.252 18.632C108.748 19.46 108.046 20.108 107.146 20.576C106.264 21.044 105.265 21.278 104.149 21.278H97.5072V29H96.1572ZM109.279 29L103.933 20.873L105.121 20.198L110.899 29H109.279ZM97.5072 19.928H104.149C105.031 19.928 105.805 19.757 106.471 19.415C107.137 19.055 107.65 18.56 108.01 17.93C108.37 17.3 108.55 16.58 108.55 15.77C108.55 14.96 108.352 14.231 107.956 13.583C107.56 12.917 107.011 12.395 106.309 12.017C105.625 11.639 104.833 11.45 103.933 11.45H97.5072V19.928ZM124.728 29.27C123.234 29.27 121.875 29.036 120.651 28.568C119.427 28.082 118.356 27.407 117.438 26.543C116.52 25.679 115.818 24.662 115.332 23.492C114.846 22.304 114.603 21.017 114.603 19.631C114.603 18.245 114.846 16.967 115.332 15.797C115.818 14.609 116.52 13.583 117.438 12.719C118.356 11.837 119.427 11.162 120.651 10.694C121.875 10.208 123.234 9.965 124.728 9.965C126.204 9.965 127.563 10.208 128.805 10.694C130.047 11.162 131.118 11.837 132.018 12.719C132.918 13.583 133.62 14.609 134.124 15.797C134.628 16.967 134.88 18.245 134.88 19.631C134.88 21.017 134.628 22.304 134.124 23.492C133.62 24.662 132.918 25.679 132.018 26.543C131.118 27.407 130.047 28.082 128.805 28.568C127.563 29.036 126.204 29.27 124.728 29.27ZM124.728 27.92C125.988 27.92 127.149 27.722 128.211 27.326C129.291 26.912 130.218 26.336 130.992 25.598C131.784 24.842 132.387 23.96 132.801 22.952C133.233 21.944 133.449 20.837 133.449 19.631C133.449 18.425 133.233 17.318 132.801 16.31C132.387 15.284 131.784 14.402 130.992 13.664C130.218 12.926 129.291 12.35 128.211 11.936C127.149 11.522 125.988 11.315 124.728 11.315C123.468 11.315 122.298 11.522 121.218 11.936C120.156 12.35 119.238 12.935 118.464 13.691C117.69 14.429 117.087 15.311 116.655 16.337C116.241 17.345 116.034 18.443 116.034 19.631C116.034 20.837 116.241 21.944 116.655 22.952C117.087 23.942 117.69 24.815 118.464 25.571C119.238 26.327 120.156 26.912 121.218 27.326C122.298 27.722 123.468 27.92 124.728 27.92ZM140.929 29V10.1H142.279V29H140.929ZM141.712 20.306V18.956H152.431V20.306H141.712ZM141.739 11.45V10.1H153.754V11.45H141.739Z" fill="white"/>
</svg>
